<svg id="Layer_1" data-name="Layer 1" xmlns="http://www.w3.org/2000/svg" xmlns:xlink="http://www.w3.org/1999/xlink" viewBox="0 0 1080 1080"><defs><style>.cls-1{fill:url(#linear-gradient);}.cls-2{fill:url(#linear-gradient-2);}.cls-3{fill:url(#linear-gradient-3);}.cls-4{fill:url(#linear-gradient-4);}.cls-5{fill:url(#linear-gradient-5);}.cls-6{fill:url(#linear-gradient-6);}.cls-7{fill:url(#linear-gradient-7);}.cls-8{fill:url(#linear-gradient-8);}.cls-9{fill:url(#linear-gradient-9);}.cls-10{fill:url(#linear-gradient-10);}.cls-11{fill:url(#linear-gradient-11);}.cls-12{fill:url(#linear-gradient-12);}</style><linearGradient id="linear-gradient" x1="465.73" y1="294.16" x2="597.56" y2="297.13" gradientUnits="userSpaceOnUse"><stop offset="0.04" stop-color="#ae8625"/><stop offset="0.08" stop-color="#b99634"/><stop offset="0.19" stop-color="#dac663"/><stop offset="0.28" stop-color="#efe47f"/><stop offset="0.33" stop-color="#f7ef8a"/><stop offset="0.77" stop-color="#d2ac47"/><stop offset="1" stop-color="#edc967"/></linearGradient><linearGradient id="linear-gradient-2" x1="461.73" y1="472.12" x2="593.56" y2="475.08" xlink:href="#linear-gradient"/><linearGradient id="linear-gradient-3" x1="452.97" y1="728.23" x2="584.81" y2="731.19" xlink:href="#linear-gradient"/><linearGradient id="linear-gradient-4" x1="452.99" y1="727.44" x2="584.82" y2="730.41" xlink:href="#linear-gradient"/><linearGradient id="linear-gradient-5" x1="453.02" y1="726.09" x2="584.86" y2="729.05" xlink:href="#linear-gradient"/><linearGradient id="linear-gradient-6" x1="453.05" y1="724.92" x2="584.88" y2="727.88" xlink:href="#linear-gradient"/><linearGradient id="linear-gradient-7" x1="453.07" y1="723.92" x2="584.9" y2="726.89" xlink:href="#linear-gradient"/><linearGradient id="linear-gradient-8" x1="457.84" y1="645.05" x2="589.68" y2="648.01" xlink:href="#linear-gradient"/><linearGradient id="linear-gradient-9" x1="457.9" y1="642.51" x2="589.73" y2="645.47" xlink:href="#linear-gradient"/><linearGradient id="linear-gradient-10" x1="457.95" y1="640.22" x2="589.78" y2="643.19" xlink:href="#linear-gradient"/><linearGradient id="linear-gradient-11" x1="457.99" y1="638.46" x2="589.82" y2="641.42" xlink:href="#linear-gradient"/><linearGradient id="linear-gradient-12" x1="458.02" y1="637.03" x2="589.86" y2="640" xlink:href="#linear-gradient"/></defs><rect x="-19" y="-14" width="1132" height="1102"/><path class="cls-1" d="M635.64,271.34l-24,47.87-8.36,16.72-6.08,12.12-64.45-.11-67.42-.12L459,335l-7.87-15.73-23.18-46.37,49.79,17.89a18.82,18.82,0,0,0-.68,3.91,14.7,14.7,0,0,0-.08,1.63,20.9,20.9,0,1,0,20.9-20.88h-.52l35-33.16.35-.34,33.69,32.93a20.89,20.89,0,1,0,22.35,21.84q0-.51,0-1a20.61,20.61,0,0,0-1.23-7.05Z"/><path class="cls-2" d="M662.38,541.86v40.65A112.43,112.43,0,0,1,576,542.06v0l-8.37-11.37,0-.06c-.48-.77-1-1.54-1.44-2.32h-.27L549,505.37l0-.06a65.7,65.7,0,0,0-35.42-26.08V579H473.16V439a102,102,0,0,1,12.95-1.89c2.79-.22,5.59-.34,8.44-.34a103.79,103.79,0,0,1,18.95,1.73q4.38.81,8.62,2a102.45,102.45,0,0,1,28.88,13,103.94,103.94,0,0,1,34.69,37.63,43.82,43.82,0,0,0,6.74-4.14,44.81,44.81,0,0,0-22.95-80.63.75.75,0,0,1,.1-.17h-96l-18.77-38.35H565.6a79.72,79.72,0,0,1,35,8c.84.39,1.67.81,2.49,1.25A80.27,80.27,0,0,1,606,517.43a65.51,65.51,0,0,0,51.26,24.63C659,542.06,660.68,542,662.38,541.86Z"/><path class="cls-3" d="M467,709.88v37.25h-3.73V709.88Z"/><path class="cls-4" d="M529,710.35v36.78h-3.73V717.76l-13.11,29.37h-2.72L496.3,717.87v29.26h-3.73V710.35h3.95l14.23,31.88L525,710.35Z"/><path class="cls-5" d="M575.18,728.32q-3.15,2.92-9.43,2.93h-7.52v15.88H554.5V709.88h11.25q6.22,0,9.4,2.93a11.11,11.11,0,0,1,0,15.51Zm-.69-7.73a7.33,7.33,0,0,0-2.08-5.65q-2.08-1.92-6.66-1.92h-7.52v15h7.52Q574.48,728.05,574.49,720.59Z"/><path class="cls-6" d="M605.35,712.91v13.91h14.12v3.09H605.35V744h15.72v3.09H601.61V709.82h19.46v3.09Z"/><path class="cls-7" d="M658.91,728.53l11.29,18.6h-4.15l-9.49-15.56-9,15.56H643.4l11.24-18.76L643.4,709.88h4.15l9.44,15.5,9.11-15.5h4.16Z"/><path class="cls-8" d="M366.21,609v-.71h19.86q7.56,0,10.93.33a18.66,18.66,0,0,1,6.91,2.21,12.82,12.82,0,0,1,5.34,5.09,15.77,15.77,0,0,1,1.81,7.87,18,18,0,0,1-3.21,10.15,26.16,26.16,0,0,1-9.05,8.15l4.94,7.59q1.62,2.85,8.58,12.49t10.76,11.75a15.11,15.11,0,0,0,7.36,2.11,16.27,16.27,0,0,0,8.08-2.71l.28,1q-5.69,4.66-14.8,4.66a15.91,15.91,0,0,1-10.45-3.6q-4.37-3.59-15.2-19.73a.3.3,0,0,1-.09-.19l-7-10.83-6.23.19h-5.67V671.5a9.39,9.39,0,0,0,.85,4.62c.57.94,1.93,1.4,4.1,1.4v.71H366.21v-.71c2.25-.09,3.65-.57,4.21-1.42s.83-2.6.83-5.22v-55.6a12.23,12.23,0,0,0-.71-4.48Q369.82,609,366.21,609Zm13.11,1.14v32.83h7.34q8.65,0,12.85-4.09a14.32,14.32,0,0,0,4.19-10.73,20.77,20.77,0,0,0-4.12-12.24q-4.12-5.77-14.5-5.77Z"/><path class="cls-9" d="M494.91,607.21q14.73,0,24.09,9a29.66,29.66,0,0,1,9.36,22.35q0,17.25-10.83,29t-28.75,11.78q-14.53,0-23.8-9.5A31.54,31.54,0,0,1,455.72,647a43.09,43.09,0,0,1,4.46-18.43,37.5,37.5,0,0,1,13.45-15.42Q482.6,607.22,494.91,607.21Zm-.28,68.41a29.28,29.28,0,0,0,14.25-3.87A28.75,28.75,0,0,0,520,661.08a27,27,0,0,0,4-14,33.07,33.07,0,0,0-5.44-18.48,38.74,38.74,0,0,0-14.11-13q-8.67-4.7-16-4.7-10.39,0-18.88,7.84A25.43,25.43,0,0,0,461,638.23a37.37,37.37,0,0,0,10.36,26.13Q481.75,675.63,494.63,675.62Z"/><path class="cls-10" d="M600.29,608.26h10.49V609a6.9,6.9,0,0,0-3.27.95,11.37,11.37,0,0,0-3,3.33l-17.1,25.94v32q0,3.88,1,5.09c.68.81,2.13,1.21,4.37,1.21v.71H574.11v-.71c3.58.22,5.37-1.18,5.37-4.22l-.1-2V641.73l-17.15-28.39q-2.7-4.51-6-4.37v-.71h16.53V609c-1.54,0-2.31.58-2.31,1.75a6.34,6.34,0,0,0,1.19,2.8l14.11,23.29,15.42-23.47a5.08,5.08,0,0,0,1-1.4,3.92,3.92,0,0,0,.52-1.4c0-1-.68-1.57-2-1.57h-.28Z"/><path class="cls-11" d="M671.32,646H650.79l-10.6,26.41A15.26,15.26,0,0,0,639.1,676c0,1,.78,1.57,2.33,1.57v.71H631v-.71a5.87,5.87,0,0,0,3.51-1q1.43-1,3.13-5.3l25.36-64h1.26l25,61.8a26.23,26.23,0,0,0,1.92,4.49q1.92,4,5.85,4v.71H680.67v-.71c1.49,0,2.23-.58,2.23-1.76a11.47,11.47,0,0,0-1.09-3.8,1.44,1.44,0,0,1-.33-.61c-.07-.32-.11-.48-.14-.48Zm-19.86-1.95h18.93l-9.46-23.85Z"/><path class="cls-12" d="M725.14,678.23v-.71c2.19,0,3.6-.41,4.25-1.23a7,7,0,0,0,1-4.23V614.81a9.35,9.35,0,0,0-.77-4.39c-.5-.9-2-1.39-4.56-1.45v-.71h18.77V609a7.32,7.32,0,0,0-3.66.66,3.29,3.29,0,0,0-1.38,1.57,15.28,15.28,0,0,0-.33,4.09v49.12q0,6.32,3,8.91t10.39,2.59h8.54q6.17,0,9-3t3.21-11.45h.71v16.81Z"/></svg>